<svg xmlns="http://www.w3.org/2000/svg" width="612.991" height="600" viewBox="0 0 612.991 600">
  <g id="Group_36862" data-name="Group 36862" transform="translate(-30.462 -42.391)">
    <g id="Background_Simple" data-name="Background Simple" transform="translate(30.462 42.391)">
      <g id="Group_36848" data-name="Group 36848">
        <path id="Path_37622" data-name="Path 37622" d="M625.321,275.14C557.269,158.6,372.7,200.109,335,143.42c-19.3-29.025-40.9-62.669-72.223-80.166-29.861-16.679-64.484-22.629-94.67-20.421C60.315,50.724,14.609,147.165,35.323,253.072,62.956,394.346,188.191,538.656,336.968,539.666c77.813.528,152.1-27.287,210.377-66.608l1.3-.884C606.865,432.547,677.277,364.115,625.321,275.14Z" transform="translate(-30.462 -42.391)" fill="#f9872f"/>
        <path id="Path_37623" data-name="Path 37623" d="M625.321,275.14C557.269,158.6,372.7,200.109,335,143.42c-19.3-29.025-40.9-62.669-72.223-80.166-29.861-16.679-64.484-22.629-94.67-20.421C60.315,50.724,14.609,147.165,35.323,253.072,62.956,394.346,188.191,538.656,336.968,539.666c77.813.528,152.1-27.287,210.377-66.608l1.3-.884C606.865,432.547,677.277,364.115,625.321,275.14Z" transform="translate(-30.462 -42.391)" fill="#fff" opacity="0.7"/>
      </g>
    </g>
    <g id="Lines" transform="translate(58.909 73.154)">
      <g id="Group_36849" data-name="Group 36849" transform="translate(0 0)">
        <path id="Path_37624" data-name="Path 37624" d="M89.023,215.179H81.457A30.619,30.619,0,0,0,50.838,245.8V413.807a30.619,30.619,0,0,0,30.619,30.619H185.27a30.619,30.619,0,0,0,30.619-30.619h0" transform="translate(-50.838 -4.714)" fill="none" stroke="#263238" stroke-linecap="round" stroke-linejoin="round" stroke-width="1.103" stroke-dasharray="4.412"/>
        <path id="Path_37625" data-name="Path 37625" d="M162.964,116.365V83.178a18.752,18.752,0,0,1,18.752-18.752h135a18.752,18.752,0,0,1,18.752,18.752h0" transform="translate(-6.426 -64.426)" fill="none" stroke="#263238" stroke-linecap="round" stroke-linejoin="round" stroke-width="1.103" stroke-dasharray="4.412"/>
      </g>
    </g>
    <g id="Shadow" transform="translate(69.575 567.662)">
      <g id="Group_36850" data-name="Group 36850">
        <ellipse id="Ellipse_2150" data-name="Ellipse 2150" cx="267.382" cy="37.365" rx="267.382" ry="37.365" fill="#f9872f"/>
        <ellipse id="Ellipse_2151" data-name="Ellipse 2151" cx="267.382" cy="37.365" rx="267.382" ry="37.365" fill="#fff" opacity="0.5"/>
      </g>
    </g>
    <g id="Window" transform="translate(84.907 138.621)">
      <g id="Group_36851" data-name="Group 36851">
        <path id="Path_37626" data-name="Path 37626" d="M573.561,142.319V393.7a30.99,30.99,0,0,1-30.986,30.986H100.446A30.99,30.99,0,0,1,69.46,393.7V142.319c0-.739.031-1.463.092-2.186a30.982,30.982,0,0,1,30.894-28.814H542.575a30.982,30.982,0,0,1,30.894,28.814C573.53,140.856,573.561,141.581,573.561,142.319Z" transform="translate(-69.46 -111.319)" fill="#fff" stroke="#263238" stroke-linecap="round" stroke-linejoin="round" stroke-width="1.103"/>
        <path id="Rectangle_5704" data-name="Rectangle 5704" d="M0,0H475.525a0,0,0,0,1,0,0V240.452a20.8,20.8,0,0,1-20.8,20.8H20.8A20.8,20.8,0,0,1,0,240.452V0A0,0,0,0,1,0,0Z" transform="translate(15.078 40.427)" fill="#263238"/>
        <path id="Path_37627" data-name="Path 37627" d="M555.793,140.275V372.5a28.881,28.881,0,0,1-28.716,29.029h-418.1A28.881,28.881,0,0,1,80.26,372.5V140.275Z" transform="translate(-65.182 -99.85)" fill="#1d3877"/>
        <path id="Path_37628" data-name="Path 37628" d="M573.442,140.133H69.526a30.982,30.982,0,0,1,30.894-28.814H542.548A30.982,30.982,0,0,1,573.442,140.133Z" transform="translate(-69.434 -111.319)" fill="#f9872f" stroke="#263238" stroke-miterlimit="10" stroke-width="1.103"/>
        <path id="Path_37629" data-name="Path 37629" d="M117,123.2a5.488,5.488,0,1,1-5.488-5.488A5.488,5.488,0,0,1,117,123.2Z" transform="translate(-54.979 -108.789)" fill="#263238"/>
        <path id="Path_37630" data-name="Path 37630" d="M133.618,123.2a5.489,5.489,0,1,1-5.489-5.488A5.49,5.49,0,0,1,133.618,123.2Z" transform="translate(-48.395 -108.789)" fill="#263238"/>
        <circle id="Ellipse_2152" data-name="Ellipse 2152" cx="5.488" cy="5.488" r="5.488" transform="translate(97.452 8.918)" fill="#263238"/>
        <path id="Path_37631" data-name="Path 37631" d="M555.782,140.282V372.488a29.048,29.048,0,0,1-29.044,29.046H109.3a29.038,29.038,0,0,1-28.476-23.41l-.015-.015v-.061a28.794,28.794,0,0,1-.539-5.559V140.282Z" transform="translate(-65.18 -99.847)" fill="none" stroke="#263238" stroke-miterlimit="10" stroke-width="1.103"/>
        <path id="Path_37632" data-name="Path 37632" d="M436.173,170.072a29.515,29.515,0,0,0-6.453-2.664l-2.6-11.659H416.028l-2.587,11.659a28.629,28.629,0,0,0-6.468,2.664l-10.01-6.407-7.839,7.839,6.3,10.01a28.51,28.51,0,0,0-2.664,6.468L381.1,190.569v11.089l11.659,2.6a28.26,28.26,0,0,0,2.664,6.514l-6.407,10.071,7.839,7.839,10.071-6.407a28.617,28.617,0,0,0,6.468,2.68l2.587,11.642h11.089l2.6-11.642a29.5,29.5,0,0,0,6.453-2.68l.508.324V169.778ZM421.6,210.5a14.323,14.323,0,1,1,14.322-14.323A14.315,14.315,0,0,1,421.6,210.5Z" transform="translate(53.978 -93.721)" fill="#07b6da"/>
        <path id="Path_37633" data-name="Path 37633" d="M325.841,187.431V164.053l-24.58-5.452a63.509,63.509,0,0,0-5.621-13.644l2.972-4.682H182.6l2.865,4.558a60.517,60.517,0,0,0-5.607,13.63l-24.578,5.467v23.378l24.578,5.482a61.336,61.336,0,0,0,5.607,13.738L171.96,227.765,188.5,244.289l21.222-13.506a62.433,62.433,0,0,0,13.644,5.651l5.452,24.549H252.2l5.5-24.549a62.875,62.875,0,0,0,13.6-5.651l21.237,13.506,16.524-16.524-13.414-21.237a64.067,64.067,0,0,0,5.621-13.615Zm-85.164,18.512a30.2,30.2,0,1,1,30.2-30.2A30.2,30.2,0,0,1,240.677,205.943Z" transform="translate(-35.467 -99.85)" fill="#07b6da"/>
        <path id="Path_37634" data-name="Path 37634" d="M200.5,312.028l.984-18.543-19.219-5.421a52.079,52.079,0,0,0-3.943-11.026l11.611-16.309-12.443-13.814-17.4,9.841a51.523,51.523,0,0,0-10.595-5.066l-3.327-19.713-18.542-.986-5.36,19.281a48.485,48.485,0,0,0-11.028,3.912L94.942,242.571l-13.83,12.445,9.856,17.418a48.123,48.123,0,0,0-5.083,10.58l-5.621.924v25.118l4.081,1.155a48.577,48.577,0,0,0,3.943,11.057l-8.023,11.227.539,9.625v.061l.015.015,8.27,9.179,17.433-9.841a48.292,48.292,0,0,0,10.626,5.128l3.173,18.928v.015l.154.785,18.543.986.493-1.77v-.015l4.865-17.5a49.623,49.623,0,0,0,11.089-3.912l16.262,11.6,13.83-12.428-9.824-17.433a48.19,48.19,0,0,0,5.02-10.566Zm-49.251-28.969a24.012,24.012,0,1,0-1.786,33.9A24.013,24.013,0,0,0,151.245,283.059Z" transform="translate(-65.18 -63.918)" fill="#263238"/>
        <path id="Path_37635" data-name="Path 37635" d="M297.51,286.3a37.765,37.765,0,0,0,1.125-8.781l13.33-7.008-3.683-13.525-15.047.7a37.419,37.419,0,0,0-5.406-6.986l4.458-14.394-12.15-6.961-10.165,11.092a39.361,39.361,0,0,0-8.753-1.114l-7.038-13.342-13.5,3.676.712,15.067a38.235,38.235,0,0,0-7,5.4l-14.4-4.444-6.969,12.131,11.151,10.138a36.577,36.577,0,0,0-1.1,8.758l-13.355,7.032,3.683,13.525,15.067-.713a35.848,35.848,0,0,0,5.386,6.994l-4.48,14.321,12.152,6.961,10.112-11a36.831,36.831,0,0,0,8.773,1.106l7.018,13.351,13.506-3.675-.593-12.869-.1-2.206a37.134,37.134,0,0,0,7.068-5.408l14.389,4.473,5.946-10.392,1.014-1.759Zm-31.933,8.216a18.091,18.091,0,1,1,12.7-22.209A18.09,18.09,0,0,1,265.577,294.518Z" transform="translate(-13.906 -65.901)" fill="#07b6da"/>
        <path id="Path_37636" data-name="Path 37636" d="M421.735,311.678l3.08-18.557-18.789-7.561a49.9,49.9,0,0,0-2.694-11.582l13.521-15.061L405.9,243.609l-18.65,7.916a49.612,49.612,0,0,0-10.071-6.253l-1.093-20.235-18.574-3.066-7.607,18.712a51.994,51.994,0,0,0-11.534,2.71l-15.109-13.521-15.293,10.95,7.931,18.635a50.691,50.691,0,0,0-5.651,8.779c-.215.43-.431.861-.631,1.293L289.4,270.653l-3.08,18.542,3.049,1.231,15.74,6.345a48.792,48.792,0,0,0,2.694,11.535l-13.521,15.108,10.95,15.293,18.649-7.947a48.363,48.363,0,0,0,10.057,6.3l1.047,20.144,18.557,3.064,7.593-18.572a48.8,48.8,0,0,0,11.565-2.711l15.076,13.538,15.308-10.965-7.931-18.65a48.586,48.586,0,0,0,6.361-10.119Zm-52.069-.832a24.3,24.3,0,1,1,5.605-33.911A24.308,24.308,0,0,1,369.667,310.846Z" transform="translate(16.436 -67.491)" fill="#07b6da"/>
      </g>
    </g>
    <g id="Graphics" transform="translate(107.145 101.391)">
      <g id="Group_36859" data-name="Group 36859" transform="translate(0 0)">
        <g id="Group_36856" data-name="Group 36856" transform="translate(0 143.963)">
          <rect id="Rectangle_5705" data-name="Rectangle 5705" width="182.604" height="238.751" rx="13.11" fill="#f9872f" stroke="#263238" stroke-miterlimit="10" stroke-width="1.103"/>
          <rect id="Rectangle_5706" data-name="Rectangle 5706" width="182.604" height="238.751" rx="13.11" opacity="0.2"/>
          <g id="Group_36855" data-name="Group 36855" transform="translate(17 18.04)">
            <path id="Path_37637" data-name="Path 37637" d="M280.169,218.988V421.132a18.3,18.3,0,0,1-18.311,18.311h-146a18.3,18.3,0,0,1-18.3-18.311V218.988a18.3,18.3,0,0,1,18.3-18.3h146A18.3,18.3,0,0,1,280.169,218.988Z" transform="translate(-97.566 -200.692)" fill="#fff" stroke="#263238" stroke-linecap="round" stroke-linejoin="round" stroke-width="1.103"/>
            <path id="Path_37638" data-name="Path 37638" d="M280.169,218.988v10.825H97.566V218.988a18.3,18.3,0,0,1,18.3-18.3h146A18.3,18.3,0,0,1,280.169,218.988Z" transform="translate(-97.566 -200.692)" fill="#f9872f" stroke="#263238" stroke-miterlimit="10" stroke-width="1.103"/>
            <rect id="Rectangle_5707" data-name="Rectangle 5707" width="44.924" height="7.535" transform="translate(17.173 41.662)" fill="#f9872f"/>
            <rect id="Rectangle_5708" data-name="Rectangle 5708" width="44.924" height="7.535" transform="translate(17.173 109.217)" fill="#f9872f"/>
            <rect id="Rectangle_5709" data-name="Rectangle 5709" width="44.924" height="7.535" transform="translate(17.173 170.477)" fill="#f9872f"/>
            <g id="Group_36852" data-name="Group 36852" transform="translate(17.173 60.317)">
              <rect id="Rectangle_5710" data-name="Rectangle 5710" width="127.591" height="5.527" fill="#263238"/>
              <rect id="Rectangle_5711" data-name="Rectangle 5711" width="104.585" height="5.385" transform="translate(0 10.578)" fill="#263238"/>
              <rect id="Rectangle_5712" data-name="Rectangle 5712" width="118.28" height="5.386" transform="translate(0 20.977)" fill="#263238"/>
              <rect id="Rectangle_5713" data-name="Rectangle 5713" width="118.28" height="5.385" transform="translate(0 31.366)" fill="#263238"/>
            </g>
            <g id="Group_36853" data-name="Group 36853" transform="translate(17.173 121.577)">
              <rect id="Rectangle_5714" data-name="Rectangle 5714" width="127.591" height="5.527" fill="#263238"/>
              <rect id="Rectangle_5715" data-name="Rectangle 5715" width="104.585" height="5.385" transform="translate(0 10.578)" fill="#263238"/>
              <rect id="Rectangle_5716" data-name="Rectangle 5716" width="118.28" height="5.386" transform="translate(0 20.977)" fill="#263238"/>
            </g>
            <g id="Group_36854" data-name="Group 36854" transform="translate(17.173 188.85)">
              <rect id="Rectangle_5717" data-name="Rectangle 5717" width="127.591" height="5.527" fill="#263238"/>
              <rect id="Rectangle_5718" data-name="Rectangle 5718" width="104.585" height="5.386" transform="translate(0 10.578)" fill="#263238"/>
              <rect id="Rectangle_5719" data-name="Rectangle 5719" width="118.28" height="5.386" transform="translate(0 20.977)" fill="#263238"/>
            </g>
          </g>
        </g>
        <g id="Group_36858" data-name="Group 36858" transform="translate(173.57)">
          <path id="Path_37639" data-name="Path 37639" d="M441.536,106.49v81.7a21.815,21.815,0,0,1-21.822,21.822H231.537a21.824,21.824,0,0,1-21.822-21.822v-81.7a21.837,21.837,0,0,1,21.822-21.838H419.714A21.828,21.828,0,0,1,441.536,106.49Z" transform="translate(-209.715 -84.652)" fill="#fff" stroke="#222221" stroke-miterlimit="10" stroke-width="1.103"/>
          <path id="Path_37640" data-name="Path 37640" d="M441.536,106.49v1.864H209.715V106.49a21.837,21.837,0,0,1,21.822-21.838H419.714A21.828,21.828,0,0,1,441.536,106.49Z" transform="translate(-209.715 -84.652)" fill="#f9872f" stroke="#263238" stroke-miterlimit="10" stroke-width="1.103"/>
          <path id="Path_37641" data-name="Path 37641" d="M235.728,97.555a3.342,3.342,0,1,1,0-4.726A3.34,3.34,0,0,1,235.728,97.555Z" transform="translate(-201.672 -81.801)" fill="#263238"/>
          <path id="Path_37642" data-name="Path 37642" d="M246.848,97.555a3.342,3.342,0,1,1,0-4.726A3.34,3.34,0,0,1,246.848,97.555Z" transform="translate(-197.267 -81.801)" fill="#263238"/>
          <path id="Path_37643" data-name="Path 37643" d="M257.968,97.555a3.342,3.342,0,1,1,0-4.726A3.34,3.34,0,0,1,257.968,97.555Z" transform="translate(-192.863 -81.801)" fill="#263238"/>
          <rect id="Rectangle_5720" data-name="Rectangle 5720" width="75.778" height="65.502" transform="translate(14.781 38.725)" fill="none" stroke="#263238" stroke-linecap="round" stroke-linejoin="round" stroke-width="1.103" stroke-dasharray="4.412"/>
          <g id="Group_36857" data-name="Group 36857" transform="translate(102.25 38.725)">
            <rect id="Rectangle_5721" data-name="Rectangle 5721" width="87.21" height="4.6" fill="#263238"/>
            <rect id="Rectangle_5722" data-name="Rectangle 5722" width="66.896" height="4.6" transform="translate(0 9.54)" fill="#263238"/>
            <rect id="Rectangle_5723" data-name="Rectangle 5723" width="99.615" height="4.655" transform="translate(0 19.025)" fill="#263238"/>
            <rect id="Rectangle_5724" data-name="Rectangle 5724" width="84.824" height="4.654" transform="translate(0 28.292)" fill="#263238"/>
          </g>
        </g>
      </g>
    </g>
    <g id="Character" transform="translate(306.749 273.444)">
      <g id="Group_36861" data-name="Group 36861">
        <path id="Path_37644" data-name="Path 37644" d="M324,444.93s-40.487,11.613-46.139,13.615c-5.143,1.816-19.08,6.7-29.537,5.189a22.545,22.545,0,0,1-2.988-.646c-10.6-3.157-15.354-6.1-16.741-12.767-1.4-6.683,3.881-11.565,8.963-14.708s32.649-6.421,32.649-6.421l6.652,1.956h.015Z" transform="translate(-228.362 -120.236)" fill="#f9872f"/>
        <path id="Path_37645" data-name="Path 37645" d="M248.319,463.734a22.545,22.545,0,0,1-2.988-.646c-10.6-3.157-15.354-6.1-16.741-12.767-1.4-6.683,3.881-11.565,8.963-14.708s32.649-6.421,32.649-6.421l6.652,1.956c-6.021,2.771-28.475,4.311-33.372,7.13s-7.269,8.131-4.374,15.308C240.649,457.4,244.776,461.1,248.319,463.734Z" transform="translate(-228.362 -120.236)" fill="#fff"/>
        <path id="Path_37646" data-name="Path 37646" d="M317.841,446.111s-30.407,7.878-42.463,12.921-35.061,7.248-43.255-3.151-.945-19.347,7.249-21.334,24.763-5.139,33.811-3.878" transform="translate(-228.298 -119.765)" fill="none" stroke="#263238" stroke-linecap="round" stroke-linejoin="round" stroke-width="1.103"/>
        <path id="Path_37647" data-name="Path 37647" d="M246.322,462.629s-15.472-8.483-10.334-20.373c3.79-8.775,24.43-6.872,34.65-11.669" transform="translate(-225.755 -119.683)" fill="none" stroke="#263238" stroke-linecap="round" stroke-linejoin="round" stroke-width="1.103"/>
        <path id="Path_37648" data-name="Path 37648" d="M409.133,465.836c-.416,4.142-1.879,8.115-6.067,10.58-2.788,1.649-6.761,2.634-12.443,2.573-14.2-.186-40.889-10.334-40.889-10.334l-24.994-13.814,13-20.576,3.557-5.636,9.195,2.063s7.607,4.313,15.262,7.747,26.226,4.158,32.772,9.456C405.067,453.176,409.841,458.937,409.133,465.836Z" transform="translate(-190.188 -120.459)" fill="#f9872f"/>
        <path id="Path_37649" data-name="Path 37649" d="M405.445,465.836c-.416,4.142-1.879,8.115-6.067,10.58a18.718,18.718,0,0,0-.709-12.474c-2.771-6.268-11.874-11.8-23.824-12.72-11.935-.924-21.1-6.514-25.888-9.01-3.742-1.941-11.627-6.175-14.907-7.947l3.557-5.636,9.195,2.063s7.607,4.313,15.262,7.747,26.226,4.158,32.772,9.456C401.38,453.176,406.153,458.937,405.445,465.836Z" transform="translate(-186.5 -120.459)" fill="#fff"/>
        <path id="Path_37650" data-name="Path 37650" d="M329.44,456.355c17.793,10.193,38.144,17.532,58.5,19.985,4.546.547,9.837.623,12.883-2.8a9.525,9.525,0,0,0,2.1-7.141c-.551-6.416-5.945-11.5-11.863-14.047s-12.45-3.15-18.734-4.558a74.07,74.07,0,0,1-18.017-6.591c-4.516-2.358-8.89-5.22-13.874-6.275s-10.924.225-13.583,4.572" transform="translate(-189.35 -118.101)" fill="none" stroke="#263238" stroke-linecap="round" stroke-linejoin="round" stroke-width="1.103"/>
        <path id="Path_37651" data-name="Path 37651" d="M395.509,477.061c4.6-2.361,8.378-6.7,9.143-11.811.906-6.048-2.538-12.127-7.391-15.847s-10.917-5.467-16.905-6.712-12.111-2.082-17.809-4.306c-8.758-3.422-17.4-10.182-26.484-7.771" transform="translate(-185.702 -119.874)" fill="none" stroke="#263238" stroke-linecap="round" stroke-linejoin="round" stroke-width="1.103"/>
        <path id="Path_37652" data-name="Path 37652" d="M391.84,304.947l-42.29-16.094-.524-.2s.155-1.125.278-2.757c.261-3.373.4-8.871-1.185-10.735-2.357-2.756-9.041-.445-15.555-3.434s-18.572,2.357-18.572,2.357-8.7-1.6-12.537,4.682c-1.955,5.066-1.277,12.612-1.277,12.612s-.278.107-.8.293c-5.036,1.879-32.448,12.2-38.254,16.34-6.407,4.543-13.49,51.129-15.77,64.8-2.278,13.691-6.328,26.012-4.265,30.724,2.048,4.7,31.508,27.383,48.449,33.234,16.942,5.868,77.049,4.144,77.049,4.144s.986-.263,2.725-.817c10.165-3.265,46.233-16.71,65.359-48.419C434.668,391.68,416.142,330.911,391.84,304.947ZM277.584,383.3c-3.11,2.2-1.448,10.75-1.448,10.75l-5.3-4.666,13.291-32.68,5.667,25.086S280.7,381.116,277.584,383.3Zm106.325,20.76c-1.463.755,4.2-14.954,1.509-18.511-2.7-3.573-10.765-3.218-10.765-3.218l.692-4.3c.094-.478,4.79-24.564,4.79-24.564l1.586-1.893s16.449,28.2,19.389,38.13C401.11,389.709,383.185,404.062,383.909,404.062Z" transform="translate(-223.547 -182.966)" fill="#f9872f"/>
        <path id="Path_37653" data-name="Path 37653" d="M298.5,222.254l-21.825,23.174s-3.011,2.66-1.815,9.382,3.982,12.5,6.087,12.946a29.913,29.913,0,0,0,5.054.452s4.677,10.136,7.99,14.12c0,0,1.155,15.645.539,19.989,0,0,7.842,6.849,15.227,7.72s18.8-10.446,18.8-10.446l2.83-13.853s6.694-10.164,7.152-12.871,3.517-2.012,5.022-3.345,4.986-7.3,5.559-12.946.616-12.119-5.936-10.217c-5.678-1.526-2.123-13.528-2.123-13.528l-9.977-8.8Z" transform="translate(-210.055 -202.202)" fill="#fff"/>
        <path id="Path_37654" data-name="Path 37654" d="M332.851,288.852a22.042,22.042,0,0,1-1.124,2.526c-3.6,6.792-19.3,19.728-19.3,19.728l-4.742-14.585-2.6,14.585c-5.235-2.28-21.205-16.125-21.205-16.125s-.539-1.293-1.2-3.31c.524-.186.8-.293.8-.293s-.677-7.546,1.277-12.612c3.835-6.284,12.537-4.682,12.537-4.682s12.058-5.344,18.572-2.357,13.2.678,15.555,3.434.907,13.492.907,13.492Z" transform="translate(-206.848 -182.966)" fill="#fff" opacity="0.5"/>
        <path id="Path_37655" data-name="Path 37655" d="M363,300.669l-42.29-16.094-.524-.2s.155-1.125.278-2.757l-.878,5.482-6.252,8.5a171.346,171.346,0,0,1,19.513,8.6,17.139,17.139,0,0,1,8.964,17.1l-7.8,66.661-3.187,37.854,9.64,10.01c10.165-3.265,46.233-16.71,65.359-48.419C405.827,387.4,387.3,326.634,363,300.669Zm-7.931,99.116c-1.463.755,4.2-14.954,1.509-18.511-2.7-3.573-10.765-3.218-10.765-3.218l.692-4.3c.094-.477,4.79-24.564,4.79-24.564l1.586-1.893s16.449,28.2,19.389,38.13C372.269,385.431,354.343,399.785,355.068,399.785Z" transform="translate(-194.706 -178.689)" opacity="0.2"/>
        <path id="Path_37656" data-name="Path 37656" d="M290.077,373.458,283.5,351.482s-11.79-40.213-19.875-50.131l2.125,28.281s-6.936,33.785-13.358,43.826c-6.422,10.025-7.808,12.536,0,12.536s26.8,15.139,26.8,15.139L277.726,388.5Zm-16.526,8.5-5.3-4.666,13.291-32.68,5.667,25.086s-9.1-.677-12.213,1.509C271.889,373.412,273.552,381.959,273.552,381.959Z" transform="translate(-220.962 -170.872)" opacity="0.2"/>
        <path id="Path_37657" data-name="Path 37657" d="M288.485,265.284s1.213,11.849,0,17.264" transform="translate(-204.548 -185.158)" fill="none" stroke="#263238" stroke-linecap="round" stroke-linejoin="round" stroke-width="1.103"/>
        <path id="Path_37658" data-name="Path 37658" d="M314.108,279.725a50.82,50.82,0,0,1,1.319-11.322" transform="translate(-194.399 -183.923)" fill="none" stroke="#263238" stroke-linecap="round" stroke-linejoin="round" stroke-width="1.103"/>
        <path id="Path_37659" data-name="Path 37659" d="M330.031,228.582s7.17,9.008,6.8,15.809-.919,14.891-.736,22.8-12.683,24.45-19.3,25.92-12.316,1.839-16.544-2.389-8.456-10.112-13.972-17.648-4.227-24.083-4.227-24.083" transform="translate(-207.147 -199.696)" fill="none" stroke="#263238" stroke-linecap="round" stroke-linejoin="round" stroke-width="1.103"/>
        <path id="Path_37660" data-name="Path 37660" d="M304.215,247.714a37.23,37.23,0,0,0-.558,7.493c.056,2.1.367,4.37,1.839,5.869.792.808,1.943,1.455,2.094,2.576a2.722,2.722,0,0,1-1.473,2.44,20.8,20.8,0,0,0-2.584,1.536" transform="translate(-198.588 -192.118)" fill="none" stroke="#263238" stroke-linecap="round" stroke-linejoin="round" stroke-width="1.103"/>
        <path id="Path_37661" data-name="Path 37661" d="M295.866,262.6s.829,5.343,8,6.461" transform="translate(-201.624 -186.22)" fill="none" stroke="#263238" stroke-linecap="round" stroke-linejoin="round" stroke-width="1.103"/>
        <path id="Path_37662" data-name="Path 37662" d="M297.246,251.425c0,1.544-.667,2.8-1.491,2.8s-1.491-1.252-1.491-2.8.667-2.795,1.491-2.795S297.246,249.881,297.246,251.425Z" transform="translate(-202.259 -191.755)" fill="#263238"/>
        <path id="Path_37663" data-name="Path 37663" d="M312.555,251.906c0,1.544-.667,2.8-1.491,2.8s-1.491-1.252-1.491-2.8.667-2.795,1.491-2.795S312.555,250.362,312.555,251.906Z" transform="translate(-196.195 -191.564)" fill="#263238"/>
        <path id="Path_37664" data-name="Path 37664" d="M308.621,247.078s6.95-6.95,12.83.8" transform="translate(-196.572 -193.504)" fill="none" stroke="#263238" stroke-linecap="round" stroke-linejoin="round" stroke-width="2.206"/>
        <path id="Path_37665" data-name="Path 37665" d="M301.314,246.983s-4.41-4.944-11.36,0" transform="translate(-203.966 -193.277)" fill="none" stroke="#263238" stroke-linecap="round" stroke-linejoin="round" stroke-width="2.206"/>
        <path id="Path_37666" data-name="Path 37666" d="M289.024,271.8s4.257,11.733,13.763,15.061,22.129-13.943,22.129-13.943l-.659-2.245s-8.272,10.746-17.472,8.913-18.3-14.3-18.3-14.3Z" transform="translate(-204.548 -185.158)" fill="#263238"/>
        <path id="Path_37667" data-name="Path 37667" d="M285.923,261.456s-5.667,2-7.173-2.415S272.076,243,276.6,239.128s8.152,5.115,8.152,5.115" transform="translate(-209.975 -195.902)" fill="none" stroke="#263238" stroke-linecap="round" stroke-linejoin="round" stroke-width="1.103"/>
        <path id="Path_37668" data-name="Path 37668" d="M320.72,263.447s5.267,1.06,6.774-3.356,6.672-16.038,2.153-19.912-8.153,5.115-8.153,5.115" transform="translate(-191.78 -195.487)" fill="none" stroke="#263238" stroke-linecap="round" stroke-linejoin="round" stroke-width="1.103"/>
        <path id="Path_37669" data-name="Path 37669" d="M286.5,267.561a7.852,7.852,0,0,0,4.973-2.937,12.38,12.38,0,0,0,1.445-4.456,53.824,53.824,0,0,0,.789-8.982,12.09,12.09,0,0,1,.315-3.5,8.967,8.967,0,0,1,1.894-3.115c1.978-2.319,4.359-4.276,6.239-6.675s3.263-5.432,2.754-8.437c0,0,12.851,11.747,31.376,8.114,9.972-1.956,19.545-10.708,18.38-21.706a8.9,8.9,0,0,0-7.027-7.659c-4.931-1.226-9.361,1.4-13.827,3.087-8.142,3.07-16.109-2.2-24.337-3.088-7.036-.757-15.673.116-19.336,7.112,0,0-12.639,1.485-18.174,11.864s4.988,24.75,4.988,24.75,4.234-5.126,9.678,5.252Z" transform="translate(-211.728 -207.891)" fill="#263238"/>
        <path id="Path_37670" data-name="Path 37670" d="M317.127,227.931s-3.268,17.031,5.26,25.276c0,0,1.867-5.119,3.758-6.368a19.747,19.747,0,0,0-1.494-18.909C318.412,218.02,317.127,227.931,317.127,227.931Z" transform="translate(-193.447 -201.698)" fill="#263238"/>
        <path id="Path_37671" data-name="Path 37671" d="M346.857,212.8c-1.262,4.692-5.231,8.325-9.732,10.158-11.839,4.822-23.337-.526-35.19-1.573-9.687-.857-20.368,7.871-21.043,17.816" transform="translate(-207.555 -205.947)" fill="none" stroke="#fff" stroke-linecap="round" stroke-linejoin="round" stroke-width="1.103" opacity="0.2"/>
        <path id="Path_37672" data-name="Path 37672" d="M275.626,235.013a20.7,20.7,0,0,1,12.609-18.264" transform="translate(-209.641 -204.383)" fill="none" stroke="#fff" stroke-linecap="round" stroke-linejoin="round" stroke-width="1.103" opacity="0.2"/>
        <path id="Path_37673" data-name="Path 37673" d="M286.53,276.9s7.8,8.594,18.435,12.612c0,0,14.172-4.11,21.385-13.992" transform="translate(-205.322 -181.102)" fill="none" stroke="#263238" stroke-linecap="round" stroke-linejoin="round" stroke-width="1.103"/>
        <circle id="Ellipse_2153" data-name="Ellipse 2153" cx="12.541" cy="12.541" r="12.541" transform="translate(73.819 53.499) rotate(-24.636)" fill="none" stroke="#263238" stroke-linecap="round" stroke-linejoin="round" stroke-width="1.103"/>
        <circle id="Ellipse_2154" data-name="Ellipse 2154" cx="12.541" cy="12.541" r="12.541" transform="translate(104.488 48.752) rotate(-7.003)" fill="none" stroke="#263238" stroke-linecap="round" stroke-linejoin="round" stroke-width="1.103"/>
        <path id="Path_37674" data-name="Path 37674" d="M290.56,273.162a9.831,9.831,0,0,0-6.032,4.678c-2.22,3.9-.881,16.207-.881,16.207s11.459,11.34,21.215,16.123l2.879-16.186,4.467,16.186s15.11-10.686,19.294-19.718c0,0,1.364-10.532,0-13.992a4.829,4.829,0,0,0-4.511-3.3" transform="translate(-206.623 -182.038)" fill="none" stroke="#263238" stroke-linecap="round" stroke-linejoin="round" stroke-width="1.103"/>
        <path id="Path_37675" data-name="Path 37675" d="M278.586,362.686s-4.473-30.01-10.434-42.254" transform="translate(-212.601 -163.315)" fill="none" stroke="#263238" stroke-linecap="round" stroke-linejoin="round" stroke-width="1.103"/>
        <path id="Path_37676" data-name="Path 37676" d="M258.921,301.351a121.6,121.6,0,0,1,9.269,15.512" transform="translate(-216.258 -170.872)" fill="none" stroke="#263238" stroke-linecap="round" stroke-linejoin="round" stroke-width="1.103"/>
        <path id="Path_37677" data-name="Path 37677" d="M343.228,321.555a86.666,86.666,0,0,1,4.925-14.649" transform="translate(-182.864 -168.672)" fill="none" stroke="#263238" stroke-linecap="round" stroke-linejoin="round" stroke-width="1.103"/>
        <path id="Path_37678" data-name="Path 37678" d="M336.6,361.345s3.232-20.573,7.077-37.528" transform="translate(-185.491 -161.974)" fill="none" stroke="#263238" stroke-linecap="round" stroke-linejoin="round" stroke-width="1.103"/>
        <path id="Path_37679" data-name="Path 37679" d="M340.521,332.44A23.665,23.665,0,0,1,353,323.9" transform="translate(-183.937 -161.94)" fill="none" stroke="#263238" stroke-linecap="round" stroke-linejoin="round" stroke-width="1.103"/>
        <path id="Path_37680" data-name="Path 37680" d="M318.245,283.592s26.022,10.394,42.815,16.3c0,0,20.662,19.432,42.814,86.734,0,0-20.306,34.15-58.915,45.1" transform="translate(-192.76 -177.907)" fill="none" stroke="#263238" stroke-linecap="round" stroke-linejoin="round" stroke-width="1.103"/>
        <path id="Path_37681" data-name="Path 37681" d="M342.184,372.736l18.655-15.576s9.869-7.5,20.133-2.369" transform="translate(-183.278 -150.417)" fill="none" stroke="#263238" stroke-linecap="round" stroke-linejoin="round" stroke-width="1.103"/>
        <path id="Path_37682" data-name="Path 37682" d="M341.665,328.669s15.432,22.73,19.379,38.126" transform="translate(-183.483 -160.052)" fill="none" stroke="#263238" stroke-linecap="round" stroke-linejoin="round" stroke-width="1.103"/>
        <path id="Path_37683" data-name="Path 37683" d="M272.6,361.224l-5.46-5.206s-8.1-1.417-17.281,4.736" transform="translate(-219.845 -149.275)" fill="none" stroke="#263238" stroke-linecap="round" stroke-linejoin="round" stroke-width="1.103"/>
        <path id="Path_37684" data-name="Path 37684" d="M262.241,365.56s6.781-22.275,13.47-33.773" transform="translate(-214.943 -158.817)" fill="none" stroke="#263238" stroke-linecap="round" stroke-linejoin="round" stroke-width="1.103"/>
        <path id="Path_37685" data-name="Path 37685" d="M300.012,285.547s-37.431,14.045-41.1,18.134-17.619,82.646-17.986,91.635c-.328,8.036,28.828,26.092,43.23,33.7" transform="translate(-223.387 -177.132)" fill="none" stroke="#263238" stroke-linecap="round" stroke-linejoin="round" stroke-width="1.103"/>
        <rect id="Rectangle_5725" data-name="Rectangle 5725" width="60.89" height="43.26" rx="6.532" transform="translate(160.363 52.542)" fill="#fff" stroke="#263238" stroke-linecap="round" stroke-linejoin="round" stroke-width="1.103"/>
        <path id="Path_37686" data-name="Path 37686" d="M360.622,254.846l-11.709,7.35,10.865,9.637" transform="translate(-180.613 -189.293)" fill="none" stroke="#263238" stroke-linecap="round" stroke-linejoin="round" stroke-width="1.103"/>
        <path id="Path_37687" data-name="Path 37687" d="M373.043,272.318l10.522-8.968-12.146-7.963" transform="translate(-171.698 -189.078)" fill="none" stroke="#263238" stroke-linecap="round" stroke-linejoin="round" stroke-width="1.103"/>
        <line id="Line_234" data-name="Line 234" y1="27.102" x2="8.644" transform="translate(185.701 61.655)" fill="none" stroke="#263238" stroke-linecap="round" stroke-linejoin="round" stroke-width="1.103"/>
        <path id="Path_37688" data-name="Path 37688" d="M304.693,305.254a2.462,2.462,0,1,1-2.461-2.461A2.461,2.461,0,0,1,304.693,305.254Z" transform="translate(-200.078 -170.301)" fill="#263238"/>
        <g id="Group_36860" data-name="Group 36860" transform="translate(51.509 199.372)">
          <path id="Path_37689" data-name="Path 37689" d="M359.055,399.909H273.868a2,2,0,0,1-2-2h0a2,2,0,0,1,2-2h85.187a2,2,0,0,1,2,2h0A2,2,0,0,1,359.055,399.909Z" transform="translate(-262.637 -332.788)" fill="#263238"/>
          <path id="Path_37690" data-name="Path 37690" d="M364.657,411.2l11.416-53.608a5.705,5.705,0,0,0-5.58-6.893H270.964a5.7,5.7,0,0,0-5.6,6.81L275.6,409.332a5.7,5.7,0,0,0,5.466,4.6l77.878,1.784A5.705,5.705,0,0,0,364.657,411.2Z" transform="translate(-265.257 -350.698)" fill="#fff" stroke="#263238" stroke-linecap="round" stroke-linejoin="round" stroke-width="1.103"/>
          <path id="Path_37691" data-name="Path 37691" d="M314.948,375.08A7.946,7.946,0,1,1,307,367.135,7.946,7.946,0,0,1,314.948,375.08Z" transform="translate(-251.87 -344.187)" fill="#263238"/>
          <line id="Line_235" data-name="Line 235" x2="11.825" transform="translate(78.695 5.086)" fill="none" stroke="#263238" stroke-linecap="round" stroke-linejoin="round" stroke-width="1.103"/>
          <line id="Line_236" data-name="Line 236" x2="44.887" transform="translate(22.224 5.086)" fill="none" stroke="#263238" stroke-linecap="round" stroke-linejoin="round" stroke-width="1.103"/>
        </g>
        <path id="Path_37692" data-name="Path 37692" d="M377.676,455.189,368.6,479s-23.135-5.833-52.782-11.907c-31-6.352-63.376-14.577-80.169-44.04-2.048-3.592-3.411-7.836-2.451-11.858,2.424-10.177,15.663-12.94,24.39-13.958a162.359,162.359,0,0,1,16.516-.93c2.81-.039,12.079-1.511,14.323.14a65.659,65.659,0,0,0,10.772,6.383c4.956,2.1,77.3-1.89,77.3-1.89a25.822,25.822,0,0,0,2.276-8.687c11.371-5.778,37.7-10.674,48.83-8.512,17.5,3.4,27.7,13.609,25.759,24.3S412.8,447.413,377.676,455.189Z" transform="translate(-226.571 -138.444)" fill="#263238"/>
        <path id="Path_37693" data-name="Path 37693" d="M364.137,446.6s-22.005-5.833-39.988-17.983-32.032-26.245-57.083-23.329" transform="translate(-213.032 -129.857)" fill="none" stroke="#fff" stroke-linecap="round" stroke-linejoin="round" stroke-width="1.103"/>
        <path id="Path_37694" data-name="Path 37694" d="M304.99,430.6c11.359-3.268,19.7-10.614,28.81-17.672,9.654-7.475,19.864-14.712,30.844-20.267" transform="translate(-198.01 -134.705)" fill="none" stroke="#fff" stroke-linecap="round" stroke-linejoin="round" stroke-width="1.103"/>
        <line id="Line_237" data-name="Line 237" x2="3.333" transform="translate(102.987 61.655)" fill="none" stroke="#263238" stroke-linecap="round" stroke-linejoin="round" stroke-width="1.103"/>
      </g>
    </g>
  </g>
</svg>
